<svg version="1.0" xmlns="http://www.w3.org/2000/svg"
 width="24.000000pt" height="24.000000pt" viewBox="0 0 24.000000 24.000000"
 preserveAspectRatio="xMidYMid meet">

<g transform="translate(0.000000,24.000000) scale(0.100000,-0.100000)"
fill="#000000" stroke="none">
<path d="M66 199 c-21 -16 -24 -24 -16 -34 9 -11 15 -10 31 6 17 17 28 19 60
14 42 -7 53 7 20 25 -31 16 -66 12 -95 -11z"/>
<path d="M130 115 c0 -9 9 -15 25 -15 19 0 24 -5 22 -21 -3 -35 20 -33 32 2
16 47 15 49 -34 49 -33 0 -45 -4 -45 -15z"/>
</g>
</svg>
